<svg width="81" height="78" fill="none" xmlns="http://www.w3.org/2000/svg"><path d="M22.902 23.734c2.635-2.635 8.346-8.454 16.033-5.597 5.864 2.175 18.227 7.356 26.35 9.773l1.907-.362a34.3 34.3 0 10-2.972 26.494c-10.926-.169-13.591-8.52-16.152-6.934-.891.554-2.848 1.807-5.17 3.016l2.634 3.15c5.206 6.503-1.213 10.753-1.213 10.753l-1.63-1.833a9.694 9.694 0 01-3.289 4.131l-2.595-2.922c-.39.385-.81.738-1.258 1.055l-7.925-8.916 1.981-7.687.6.238c1.778-5.285 11.035-12.952 13.789-15.141l-.882-.466H32.461s-.55 2.086-5.16 5.161c5.482 15.077-6.157 17.51-6.157 17.51s-3.71-13.265-5.706-18.228c-1.947-4.859 4.83-10.56 7.464-13.195z" fill="#179BD7"/><path d="M39.792 51.595l-.66.267.417.495.243-.762z" fill="#E56031" stroke="#E56031" stroke-miterlimit="10"/><path d="M22.957 43.442c5.602 8.916 10.708 3.79 10.708 3.79l6.256-17.955-10.208-.99-7.43 12.02.674 3.135z" fill="#1C1C1C" stroke="#fff" stroke-miterlimit="10"/><mask id="a" fill="#fff"><path d="M70.664 26.894l-5.38 1.02c-8.122-2.417-20.485-7.597-26.349-9.772-7.687-2.858-13.398 2.972-16.033 5.597-2.635 2.625-9.41 8.336-7.464 13.175 1.981 4.953 5.706 18.227 5.706 18.227s11.64-2.412 6.152-17.454c4.61-3.076 5.16-5.161 5.16-5.161h10.65L72.08 47.91"/></mask><path d="M70.664 26.894l-5.38 1.02c-8.122-2.417-20.485-7.597-26.349-9.772-7.687-2.858-13.398 2.972-16.033 5.597-2.635 2.625-9.41 8.336-7.464 13.175 1.981 4.953 5.706 18.227 5.706 18.227s11.64-2.412 6.152-17.454c4.61-3.076 5.16-5.161 5.16-5.161h10.65L72.08 47.91" fill="#fff"/><path d="M70.85 27.877a1 1 0 00-.372-1.965l.372 1.965zm-5.565.038l-.285.958a.988.988 0 00.471.024l-.186-.982zm-26.35-9.773l-.348.938.348-.938zM15.438 36.914l.929-.371-.001-.002-.928.373zm5.706 18.227l-.963.27a1 1 0 001.166.71l-.203-.98zm6.152-17.454l-.555-.832a1 1 0 00-.385 1.175l.94-.343zm5.16-5.161v-1a1 1 0 00-.966.745l.967.255zm10.65 0l.468-.884a1 1 0 00-.468-.116v1zm28.506 16.267a1 1 0 10.937-1.767l-.938 1.767zm-1.134-22.881l-5.38 1.02.373 1.965 5.38-1.02-.373-1.965zm-4.908 1.044c-8.084-2.406-20.344-7.548-26.287-9.751l-.696 1.875c5.786 2.145 18.251 7.365 26.413 9.793l.57-1.917zm-26.286-9.751c-4.172-1.55-7.82-.732-10.725.794-2.87 1.509-5.057 3.73-6.363 5.032l1.412 1.417c1.33-1.325 3.316-3.33 5.881-4.678 2.532-1.33 5.582-1.997 9.098-.69l.696-1.875zm-17.087 5.826c-1.26 1.254-3.707 3.427-5.543 5.863-1.802 2.39-3.333 5.436-2.144 8.393l1.856-.746c-.757-1.882.126-4.11 1.885-6.443 1.723-2.285 3.98-4.28 5.357-5.65l-1.412-1.417zM14.51 37.286c.97 2.427 2.385 6.94 3.566 10.886a498.216 498.216 0 012.063 7.09l.032.112.008.028.002.007v.002l.963-.27.963-.27-.001-.003-.002-.007-.008-.029-.032-.113a294.957 294.957 0 00-.572-2.006c-.38-1.324-.91-3.142-1.5-5.115-1.176-3.93-2.615-8.53-3.625-11.055l-1.857.742zm6.634 17.855c.203.98.204.98.204.979h.002l.004-.001.012-.003.035-.008a8.28 8.28 0 00.528-.145c.343-.106.817-.274 1.365-.525 1.091-.5 2.5-1.345 3.729-2.716 2.524-2.819 4.052-7.594 1.212-15.378l-1.879.685c2.648 7.258 1.1 11.21-.823 13.359-.996 1.111-2.154 1.81-3.073 2.232a9.39 9.39 0 01-1.123.433 6.22 6.22 0 01-.384.106l-.014.003h-.001.001c.001 0 .002 0 .205.979zm6.707-16.622c2.376-1.585 3.75-2.944 4.54-3.947.395-.502.644-.914.8-1.22a3.933 3.933 0 00.21-.496l.014-.044.005-.017.002-.008v-.003l.001-.002-.966-.256c-.967-.255-.967-.256-.967-.257v-.001l.001-.003.002-.006.002-.008a.1.1 0 01.002-.007l-.007.02c-.012.03-.037.092-.083.183a5.47 5.47 0 01-.587.887c-.637.808-1.844 2.03-4.08 3.52l1.11 1.665zm4.606-4.993h10.648v-2H32.457v2zm10.18-.117l28.975 15.384.937-1.767-28.975-15.384-.938 1.767z" fill="#1C1C1C" mask="url(#a)"/><path d="M38.043 57.019l6.246 7.023s6.438-4.25 1.213-10.753l-4.527-5.404-2.932 9.134z" fill="#fff" stroke="#EFDB24" stroke-miterlimit="10"/><path d="M36.41 60.11l2.426 2.936a2.887 2.887 0 004.458-3.665l-2.427-2.942-4.458 3.67z" fill="#EFDB24"/><path d="M32.124 58.177l7.256 8.163s7.46-4.953 1.412-12.497l-5.265-6.28-3.403 10.614z" fill="#fff" stroke="#EFDB24" stroke-miterlimit="10"/><path d="M31.698 60.961l2.427 2.937a2.887 2.887 0 005.1-1.552 2.884 2.884 0 00-.642-2.113l-2.427-2.937-4.458 3.665z" fill="#EFDB24"/><path d="M27.642 55.577l7.924 8.916s8.089-5.374 1.486-13.636a989.296 989.296 0 00-7.469-2.972l-1.941 7.692z" fill="#fff" stroke="#EFDB24" stroke-miterlimit="10"/><path d="M27.741 59.079l2.427 2.937a2.887 2.887 0 004.458-3.67l-2.427-2.937-4.458 3.67z" fill="#EFDB24"/><path d="M37.617 51.734s12.298 8.677 27.994 2.308c15.696-6.37-13.833-14.364-13.833-14.364l-11.09 5.82-3.07 6.236z" fill="#1C1C1C" stroke="#1C1C1C" stroke-miterlimit="10"/><path d="M48.033 12.348L17.82 67.326a33.615 33.615 0 006.305 2.69l27.9-50.809" fill="#1C1C1C"/><path d="M52.025 19.207l6.45-11.743-5.97-3.26-4.472 8.143M16.963 69.95l-.495 7.534 6.37-4.784a33.996 33.996 0 01-5.875-2.75z" fill="#1C1C1C"/><path d="M80 47.672c-6.593 1.318-11.204 6.147-14.825 6.37-11.748.327-14.492-8.564-17.127-6.934-2.635 1.63-14.715 9.44-17.791 4.061-3.076-5.379 14.497-18.821 14.497-18.821" fill="#fff"/><path d="M80 47.672c-6.593 1.318-11.204 6.147-14.825 6.37-11.748.327-14.492-8.564-17.127-6.934-2.635 1.63-14.715 9.44-17.791 4.061-3.076-5.379 14.497-18.821 14.497-18.821" stroke="#1C1C1C" stroke-linecap="round" stroke-linejoin="round"/><path d="M36.156 44.066l-3.15 2.145a2.879 2.879 0 103.24 4.76l3.15-2.145-3.24-4.76zM16.2 46.964l.99 3.685a2.883 2.883 0 005.568-1.486l-.99-3.68-5.568 1.48z" fill="#EFDB24"/><path d="M21.58 36.335a11.155 11.155 0 005.716 1.367m3.234-8.079a6.513 6.513 0 001.926 2.898" stroke="#EFDB24" stroke-linecap="round" stroke-linejoin="round"/><path d="M59.515 6.087l.337-.614A3.592 3.592 0 0054.455.866c-.369.316-.67.704-.884 1.14l-.337.614 6.28 3.467z" fill="#179BD7"/><path d="M44.755 32.373a14.25 14.25 0 017.32-1.982" stroke="#EFDB24" stroke-miterlimit="10" stroke-linecap="round"/><path d="M36.597 32.64L29.48 45.725" stroke="#EFDB24" stroke-miterlimit="10" stroke-linecap="round" stroke-dasharray="2 2"/></svg>