<svg width="539" height="535" fill="none" xmlns="http://www.w3.org/2000/svg"><circle cx="268.786" cy="267.871" r="264.129" stroke="url(#paint0_linear_1142_13913)" stroke-width="2"/><circle cx="4.571" cy="253.244" r="4.571" fill="#FD1A5A"/><circle cx="15.542" cy="344.667" r="4.571" fill="#179BD7"/><circle cx="67.653" cy="438.834" r="4.571" fill="#FD1A5A"/><circle cx="50.283" cy="118.851" r="4.571" fill="#179BD7"/><circle cx="85.938" cy="76.796" r="4.571" fill="#FD1A5A"/><circle cx="135.307" cy="40.226" r="4.571" fill="#179BD7"/><circle cx="200.218" cy="12.799" r="4.571" fill="#4958E3"/><circle cx="289.813" cy="4.571" r="4.571" fill="#179BD7"/><circle cx="340.096" cy="13.714" r="4.571" fill="#179BD7"/><circle cx="410.492" cy="44.798" r="4.571" fill="#FD1A5A"/><circle cx="457.118" cy="83.196" r="4.571" fill="#179BD7"/><circle cx="517.458" cy="179.19" r="4.571" fill="#179BD7"/><circle cx="509.23" cy="377.58" r="4.571" fill="#179BD7"/><circle cx="533.528" cy="286.571" r="4.571" fill="#179BD7"/><circle cx="479.06" cy="427.863" r="4.571" fill="#FD1A5A"/><circle cx="416.528" cy="487.571" r="4.571" fill="#FD1A5A"/><circle cx="303.528" cy="529.571" r="4.571" fill="#179BD7"/><circle cx="166.528" cy="513.571" r="4.571" fill="#FD1A5A"/><circle cx="269" cy="267" r="222" stroke="#7B7E86" stroke-dasharray="2 2"/><circle cx="269" cy="267" r="197" fill="#F7F7F7"/><path d="M284.628 335.374l38.319 15.391 47.436-118.117-32.392-13.005a6.391 6.391 0 00-8.309 3.548l-45.054 112.183z" fill="#F4A640"/><path d="M280.555 333.028l73.024 12.668 17.811-102.673-73.024-12.667-17.811 102.672z" fill="#ADCFD8"/><path d="M316.8 242.411l32.764 5.807.131-.736-32.765-5.806-.13.735zm-6.554-3.085l46.53 8.247.131-.736-46.531-8.246-.13.735zm-6.66 8.712l56.453 10.004.13-.735-56.453-10.005-.13.736zm-.628 3.537l56.453 10.005.13-.735-56.453-10.005-.13.735zm-1.253 7.075l56.452 10.005.131-.735-56.453-10.005-.13.735zm-.63 3.538l56.453 10.005.13-.736-56.453-10.004-.13.735zm-.372 5.718l56.186 9.746.127-.732-56.186-9.746-.127.732zm-3.013 13.378l56.453 10.005.13-.735-56.453-10.005-.13.735zm-.65 3.669l56.453 10.005.13-.735-56.453-10.005-.13.735zm-.65 3.67l56.453 10.005.13-.735-56.453-10.005-.13.735zm-.652 3.668l56.453 10.005.13-.735-56.452-10.005-.131.735zm-.652 3.67l56.453 10.005.131-.735-56.453-10.005-.131.735zm-.649 3.668l56.453 10.005.13-.735-56.453-10.005-.13.735zm-.652 3.667l56.453 10.005.13-.736-56.453-10.005-.13.736z" fill="#55769F"/><path d="M282.299 326.579l72.062 18.959 26.657-101.32-72.062-18.959-26.657 101.32z" fill="#DAEEF7"/><path d="M324.505 241.916l32.278 8.319.187-.725-32.278-8.319-.187.725zm-4.672-4.23l45.701 12.024.191-.723-45.702-12.023-.19.722zm-7.352 8.136l55.446 14.588.19-.723-55.446-14.587-.19.722zm-.915 3.476l55.446 14.587.19-.722-55.446-14.588-.19.723zm-1.829 6.947l55.446 14.588.19-.723-55.446-14.587-.19.722zm-.915 3.476l55.446 14.587.19-.722-55.446-14.587-.19.722zm-.913 3.474l55.446 14.587.19-.722-55.446-14.588-.19.723zm-4.025 15.284l55.446 14.587.19-.722-55.446-14.587-.19.722zm-.948 3.603l55.446 14.588.19-.723-55.446-14.587-.19.722zm-.948 3.6l55.446 14.588.19-.723-55.446-14.587-.19.722zm-.948 3.605l55.445 14.587.19-.723-55.445-14.587-.19.723zm-2.79 4.051l55.613 14.333.187-.725-55.613-14.333-.187.725zm.89 3.156l55.446 14.587.19-.722-55.446-14.588-.19.723zm-2.813 4.021l55.613 14.333.187-.724-55.613-14.333-.187.724z" fill="#55769F"/><path d="M299.168 341.215l77.141 30.982 44.995-112.031-64.822-39.996a6.896 6.896 0 00-8.35.838 6.89 6.89 0 00-1.682 2.463l-47.282 117.744z" fill="#FEB546"/><path d="M392.02 329.457l13.977-4.088c2.461-10.172 3.938-18.835 3.938-18.835-16.864.68-29.843 5.841-39.825 13.18l-2.066 16.604-4.459-11.148c-23.567 22.481-26.325 57.173-26.325 57.173s47.436-18.56 56.48-26.209c3.491-2.954 6.702-11.023 9.327-19.818-4.723-2.532-11.047-6.859-11.047-6.859z" fill="#FF5B7E"/><path d="M409.937 306.527s-55.513 43.539-72.677 75.825c0 0 47.436-18.56 56.48-26.209 3.491-2.954 6.702-11.023 9.327-19.818-4.719-2.541-11.044-6.874-11.044-6.874L406 325.364c2.451-10.174 3.937-18.837 3.937-18.837z" fill="#E03268"/><path d="M419.466 349.265c-9.846-2.835-19.125-3.258-27.671-2.101a497.23 497.23 0 01-3.597 8.011l-2.229-6.959c-32.034 7.208-52.456 35.573-52.456 35.573 21.483 6.541 37.985 5.453 50.509.929.083-2.674.152-6.644.152-6.644l3.81 5.042a57.286 57.286 0 0014.808-9.652 268.846 268.846 0 01-4.18-5.62l7.877 2.011c9.509-10.119 12.977-20.59 12.977-20.59z" fill="#FF5B7E"/><path d="M384.012 384.71c.084-2.673.153-6.643.153-6.643l3.81 5.042a57.35 57.35 0 0014.807-9.652c-2-2.601-4.18-5.62-4.18-5.62l7.878 2.01c9.518-10.11 12.986-20.581 12.986-20.581-38.027 5.817-85.962 34.523-85.962 34.523 21.483 6.541 37.984 5.453 50.508.921zM177.105 264.297h-5.276a5.52 5.52 0 013.117-.944h132.163c6.913 0 12.518 4.968 12.518 11.098v7.059c0 6.131-5.605 11.098-12.518 11.098l-130.684-.039.68-28.272z" fill="#E03268"/><path d="M308.541 281.51v-7.06c0-6.131-5.605-11.097-12.518-11.097h2.837c6.915 0 12.52 4.968 12.52 11.097v7.06c0 6.131-5.605 11.098-12.52 11.098h-2.8c6.897-.028 12.481-4.989 12.481-11.098zm-30.952 0v-7.06c0-6.131-5.605-11.097-12.52-11.097h2.839c6.915 0 12.52 4.968 12.52 11.097v7.06c0 6.131-5.605 11.098-12.52 11.098h-2.8c6.896-.028 12.481-4.989 12.481-11.098z" fill="#FEB546"/><path d="M252.136 263.379c6.612 0 11.972 4.751 11.972 10.614v7.965c0 5.861-5.36 10.614-11.972 10.614h-82.273v-1.773h.338l20.916-1.755 4.235-14.711s-8.16-8.125-8.692-8.334c-.531-.21-16.453-.846-16.453-.846h-.338v-1.772l82.267-.002z" fill="#FF5B7E"/><path d="M175.199 277.923c0-8.595-5.016-12.762-5.016-12.762h80.26c6.074 0 10.997 4.364 10.997 9.748v6.131c0 5.388-4.923 9.749-10.997 9.749h-80.26s5.016-2.033 5.016-12.866z" fill="#DAEEF7"/><path d="M261.448 274.909v6.131c0 .79-.108 1.576-.32 2.337-2.707-5.87-7.896-11.518-17.772-13.343-23.059-4.243-73.168-4.873-73.168-4.873h80.261c6.075 0 10.999 4.364 10.999 9.748z" fill="#DAEEF7"/><path d="M179.281 322.755h-5.971a5.832 5.832 0 013.53-1.182h149.58c7.825 0 14.17 6.221 14.17 13.892v8.825c0 7.671-6.345 13.891-14.17 13.891l-147.908-.05.769-35.376z" fill="#07085B"/><path d="M264.201 321.604c7.485 0 13.551 5.945 13.551 13.283v9.977c0 7.337-6.066 13.284-13.551 13.284h-93.117v-2.229h.384l23.674-2.198 4.784-18.403s-9.234-10.168-9.838-10.43c-.604-.262-18.62-1.059-18.62-1.059h-.384v-2.225h93.117z" fill="#55769F"/><path d="M177.124 339.809c0-10.759-5.672-15.978-5.672-15.978h90.85c6.874 0 12.448 5.464 12.448 12.202v7.677c0 6.739-5.574 12.203-12.448 12.203h-90.85s5.672-2.557 5.672-16.104z" fill="#DAEEF7"/><path d="M274.741 336.036v7.676c0 .987-.122 1.97-.363 2.927-3.063-7.35-8.936-14.427-20.115-16.705-26.098-5.313-82.811-6.101-82.811-6.101h90.85c6.867 0 12.439 5.464 12.439 12.203z" fill="#DAEEF7"/><path d="M345.519 293.46h5.973a6.878 6.878 0 00-3.53-.929H198.324c-7.829 0-14.175 4.935-14.175 11.023v7.001c0 6.088 6.346 11.022 14.175 11.022l147.966-.039-.771-28.078z" fill="#02CCC0"/><path d="M260.563 292.55c-7.487 0-13.562 4.719-13.562 10.541v7.913c0 5.821 6.07 10.54 13.562 10.54h93.155v-1.761h-.387l-23.68-1.745-4.784-14.605s9.239-8.069 9.846-8.277c.608-.208 18.628-.839 18.628-.839h.386v-1.76l-93.164-.007z" fill="#06BFAD"/><path d="M347.678 306.995c0-8.547 5.674-12.675 5.674-12.675h-90.879c-6.874 0-12.448 4.335-12.448 9.682v6.09c0 5.347 5.574 9.683 12.448 9.683h90.879s-5.674-2.036-5.674-12.78z" fill="#DAEEF7"/><path d="M250.022 304.002v6.09c.003.789.129 1.572.371 2.322 3.064-5.832 8.939-11.448 20.121-13.254 26.109-4.215 82.845-4.83 82.845-4.83h-90.886c-6.876 0-12.451 4.325-12.451 9.672z" fill="#DAEEF7"/><path opacity=".5" d="M211.562 310.547v-7.001c0-6.088 6.346-11.023 14.175-11.023h-14.209c-7.829 0-14.176 4.935-14.176 11.023v7.001c0 6.088 6.347 11.023 14.176 11.023h14.022c-7.742-.082-13.988-4.983-13.988-11.023z" fill="#55769F"/><path d="M355.377 359.3h7.487a9.425 9.425 0 00-4.424-1.048H170.841c-9.816 0-17.771 5.514-17.771 12.316v7.822c0 6.802 7.955 12.316 17.771 12.316l185.5-.043-.964-31.363z" fill="#FEB546"/><path d="M248.872 358.282c-9.386 0-16.994 5.272-16.994 11.777v8.84c0 6.502 7.608 11.779 16.994 11.779h116.786v-1.979h-.483l-29.689-1.949-6.001-16.314s11.582-9.014 12.337-9.247c.754-.232 23.353-.929 23.353-.929h.483v-1.965l-116.786-.013z" fill="#F4A640"/><path d="M358.084 374.421c0-9.538 7.112-14.162 7.112-14.162H251.274c-8.621 0-15.606 4.843-15.606 10.818v6.804c0 5.975 6.989 10.818 15.606 10.818h113.931s-7.121-2.268-7.121-14.278z" fill="#DAEEF7"/><path d="M235.655 371.077v6.803a7.71 7.71 0 00.455 2.601c3.842-6.515 11.207-12.791 25.226-14.809 32.731-4.71 103.856-5.408 103.856-5.408H251.274c-8.63-.006-15.619 4.838-15.619 10.813z" fill="#DAEEF7"/><path d="M132.457 394.063h272.059c.804 0 1.456-.652 1.456-1.457v-.669c0-.804-.652-1.456-1.456-1.456H132.457c-.805 0-1.457.652-1.457 1.456v.669c0 .805.652 1.457 1.457 1.457z" fill="#C4DFE8"/><path d="M407.641 272.529l-52.524-30.042-7.097 14.063 53.743 28.433 5.878-12.454z" fill="#F4A640"/><path d="M362.435 155.213s.414 4.088 3.638 4.368c-3.224.283-3.638 4.368-3.638 4.368s-.414-4.087-3.638-4.368c3.224-.282 3.638-4.368 3.638-4.368z" fill="#02CCC0"/><path d="M421.309 283.028s.621 6.131 5.457 6.553c-4.831.424-5.457 6.551-5.457 6.551s-.622-6.131-5.456-6.551c4.834-.425 5.456-6.553 5.456-6.553z" fill="#FF5B7E"/><path d="M385.261 121.562s.557 5.441 4.847 5.817c-4.294.371-4.847 5.818-4.847 5.818s-.558-5.441-4.846-5.818c4.294-.376 4.846-5.817 4.846-5.817zM150.577 307.149s.371 3.662 3.26 3.915c-2.889.26-3.26 3.92-3.26 3.92s-.372-3.66-3.261-3.915c2.889-.252 3.261-3.92 3.261-3.92z" fill="#FEB546"/><path d="M386.853 204.242s.372 3.653 3.255 3.902c-2.883.253-3.255 3.902-3.255 3.902s-.372-3.655-3.253-3.902c2.883-.249 3.253-3.902 3.253-3.902zM325.346 105s.371 3.653 3.253 3.902c-2.883.252-3.253 3.901-3.253 3.901s-.372-3.654-3.255-3.901c2.883-.249 3.255-3.902 3.255-3.902zm-139.823 49.851s.485 4.782 4.255 5.111c-3.773.331-4.258 5.111-4.258 5.111s-.485-4.78-4.257-5.111c3.775-.329 4.26-5.111 4.26-5.111zm-32.453 82.813s.709 7.005 6.237 7.489c-5.528.485-6.237 7.49-6.237 7.49s-.712-7.005-6.239-7.49c5.527-.483 6.239-7.489 6.239-7.489zm169.021-63.638s.557 5.44 4.845 5.817c-4.293.371-4.845 5.817-4.845 5.817s-.558-5.442-4.846-5.817c4.294-.377 4.846-5.817 4.846-5.817z" fill="#FF5B7E"/><path d="M426.155 232.763s.557 5.44 4.845 5.817c-4.294.372-4.845 5.817-4.845 5.817s-.558-5.44-4.846-5.817c4.294-.377 4.846-5.817 4.846-5.817zM156.522 121.115s.392 3.876 3.452 4.144c-3.06.269-3.452 4.145-3.452 4.145s-.394-3.876-3.452-4.145c3.058-.268 3.452-4.144 3.452-4.144zm40.83 95.813s.63 6.207 5.528 6.636c-4.898.43-5.528 6.637-5.528 6.637s-.629-6.207-5.529-6.637c4.9-.429 5.529-6.636 5.529-6.636z" fill="#02CCC0"/><path d="M143.007 176.51s.43 4.925 3.776 5.265c-3.345.34-3.776 5.265-3.776 5.265s-.431-4.925-3.775-5.265c3.344-.34 3.775-5.265 3.775-5.265zm150.316-54.406s.433 4.938 3.787 5.28c-3.344.341-3.787 5.28-3.787 5.28s-.433-4.944-3.777-5.286c3.344-.342 3.777-5.274 3.777-5.274z" fill="#FEB546"/><path d="M250.022 148.003l-.108 7.896-8.344 1.51.277-11.141 8.175 1.735z" fill="#FFC0BB"/><path opacity=".6" d="M241.719 151.397l.128-5.129 8.175 2.619-.049 2.386c-1.835.68-4.936 1.1-8.254.124z" fill="#FC8D84"/><path d="M256.799 120.469s-6.415-3.657-13.458-2.945c-10.841 1.094-12.177 11.772-16.119 11.944 0 0 .901 1 3.924.6 0 0-1.791 2.915-1.487 4.764 0 0 2.215-2.733 3.198-3.181 0 0-2.295 9.721 4.659 12.926 4.132 1.902 12.734-12.758 12.734-12.758l6.549-11.35zm-4.386 21.939s.479 5.99 4.163 6.852a6.26 6.26 0 01-.843-3.989s2.77 3.865 5.835 1.451c0 0-5.215-2.772-3.652-6.657 1.562-3.884-5.869.876-5.869.876l.366 1.467z" fill="#07085B"/><path d="M236.197 135.57c.47 1.486-.108 2.985-1.3 3.36-1.193.376-2.529-.516-2.999-1.995-.47-1.479.108-2.986 1.3-3.363 1.193-.377 2.527.519 2.999 1.998z" fill="#F99893"/><path d="M235.943 143.988a11.764 11.764 0 01-.744-2.031 22.154 22.154 0 01-.761-5.605c0-.372-.036-.743-.069-1.104a12.026 12.026 0 0116.73-12.171 12.012 12.012 0 016.6 7.081c.55 1.573.767 3.243.637 4.904.784-.358 1.633-.386 2.348 0 1.373.744 1.728 2.743.791 4.459-.936 1.717-2.807 2.497-4.18 1.751a2.4 2.4 0 01-.509-.381c-1.064 5.815-6.235 9.96-11.998 9.41a10.798 10.798 0 01-7.06-3.612 5.351 5.351 0 01-.372-.41 10.33 10.33 0 01-1.413-2.291z" fill="#FFC0BB"/><path d="M247.484 135.246a1.052 1.052 0 001.15 1.146 1.052 1.052 0 00.558-1.858 1.045 1.045 0 00-.971-.191 1.062 1.062 0 00-.62.511 1.06 1.06 0 00-.117.392zm-9.03-.271a1.052 1.052 0 001.15 1.146 1.052 1.052 0 00.559-1.858 1.045 1.045 0 00-.971-.191 1.052 1.052 0 00-.738.903z" fill="#333"/><path d="M246.421 133.065a10.019 10.019 0 011.538-.353c.488-.07.983-.07 1.47 0a4.8 4.8 0 011.401.418l.176.074c.058.026.11.063.168.091l.343.186c.231.128.442.286.699.414a4.606 4.606 0 00-.457-.698 3.835 3.835 0 00-.623-.578 3.415 3.415 0 00-1.601-.658 3.61 3.61 0 00-1.721.175 3.31 3.31 0 00-1.393.929zm-4.227-.197a3.293 3.293 0 00-1.3-1.05 3.568 3.568 0 00-1.696-.329 3.417 3.417 0 00-1.654.515 3.725 3.725 0 00-.672.52 4.618 4.618 0 00-.519.656c.266-.106.493-.245.743-.351l.359-.152c.059-.025.115-.056.175-.077l.185-.057c.46-.171.943-.27 1.433-.294.491-.025.984.019 1.464.13.506.124 1.002.288 1.482.489z" fill="#07085B"/><path d="M241.713 142.288c.47 1.545 2.044 2.601 3.798 2.426 1.754-.175 3.095-1.509 3.259-3.116l-7.057.69z" fill="#fff"/><path d="M244.283 134.027a15.741 15.741 0 00-.955 1.931 14.604 14.604 0 00-.699 2.043 5.534 5.534 0 00-.167 1.093c0 .099.006.199.02.297 0 .052.026.108.039.16.022.06.051.118.088.171l.072.082.06.046c.041.03.078.063.119.089.083.05.165.104.25.147.333.174.683.312 1.045.412.355.105.719.183 1.086.233a12.128 12.128 0 01-1.945-.929c-.074-.047-.139-.101-.206-.151l-.095-.078-.044-.041-.013-.02a.775.775 0 01-.047-.401c.03-.34.093-.676.186-1.004.165-.678.383-1.35.591-2.027.208-.676.421-1.363.615-2.053z" fill="#F99893"/><path d="M258.334 135.057c1.709-.94 3.127.693 3.127.693.613-1.468 2.853-7.812-2.204-12.193l3.402-1.453s-1.903-.972-3.889-.528c0 0 .628-1.639.487-3.32 0 0-1.458 1.984-2.307 2.328l-15.876.186s1.094 6.803 5.468 9.315c0 0-1.782-4.13-1.301-6.519 0 0 .851 6.317 7.209 7.937l3.53 7.045.83-.383c.197-1.219.623-2.614 1.524-3.108z" fill="#07085B"/><path d="M207.851 147.612s1.228 16.418 8.985 20.233c7.757 3.814 22.109-5.724 22.109-5.724l-14.09-2.745s-6.722 1.487-7.499 1.359c-.776-.129-5.235-9.89-5.235-9.89l-4.27-3.233z" fill="#FFC0BB"/><path d="M239.631 154.63l-14.78 1.709 2.198 12.797 7.238-2.391 5.344-12.115z" fill="#E03268"/><path d="M229.763 191.178s-4.782 42.661-4.007 57.528l8.449 1.007 8.797-49.357 1.115.045 5.67 49.64h7.672s1.265-49.555-2.871-63.517c-4.135-13.962-24.825 4.654-24.825 4.654z" fill="#FEB546"/><path d="M257.663 160.015a6.212 6.212 0 00-4.459-4.57c-.9-.232-1.822-.366-2.751-.399l-.467-.017c-5.508 1.759-8.165-.492-8.165-.492-2.044-.344-7.913 0-10.243 14.406-2.844 17.581-2.972 23.398-2.972 23.398s16.418 7.887 27.794 1.681c-.006 0 3.764-23.634 1.263-34.007z" fill="#FF5B7E"/><path d="M232.738 251.884l-.175 6.18-4.102 2.972s-1.94-2.612-1.901-2.972c.039-.361.372-7.804.372-7.804l5.806 1.624zm18.473 0l.174 6.18 4.103 2.972s1.939-2.612 1.9-2.972c-.039-.361-.371-7.804-.371-7.804l-5.806 1.624z" fill="#FFC0BB"/><path d="M225.514 248.15l8.888 1.061a.421.421 0 01.372.501l-.602 3.134a.427.427 0 01-.476.342l-8.325-1.15a.426.426 0 01-.371-.427l.037-3.043a.429.429 0 01.477-.418zm32.688.237l-8.89 1.059a.429.429 0 00-.372.504l.606 3.134a.427.427 0 00.476.34l8.325-1.15a.424.424 0 00.371-.427l-.037-3.042a.413.413 0 00-.039-.173.417.417 0 00-.262-.23.446.446 0 00-.178-.015z" fill="#F4A640"/><path d="M287.237 192.361l9.507-.663-9.507-.663v1.326z" fill="#EAF5F9"/><path d="M294.934 191.698a.946.946 0 001.133.929.944.944 0 00.744-.744.944.944 0 00-.403-.973.949.949 0 00-1.474.788z" fill="#02CCC0"/><path d="M288.582 194.314h-.275v-5.388h.275a2.414 2.414 0 012.415 2.415v.557a2.414 2.414 0 01-2.415 2.416zm-29.693-1.953l-9.505-.663 9.505-.663v1.326z" fill="#294A5C"/><path d="M251.19 191.698a.944.944 0 01-.585.878.935.935 0 01-.548.055.942.942 0 01-.747-.745.947.947 0 01.403-.975.946.946 0 011.198.117.949.949 0 01.279.67z" fill="#02CCC0"/><path d="M257.544 188.932h.275v5.388h-.275a2.417 2.417 0 01-2.415-2.416v-.557a2.416 2.416 0 012.415-2.415zm29.693 3.429l9.507-.663-9.507-.663v1.326z" fill="#294A5C"/><path d="M294.934 191.698a.946.946 0 001.133.929.944.944 0 00.744-.744.944.944 0 00-.403-.973.949.949 0 00-1.474.788z" fill="#02CCC0"/><path d="M288.582 194.314h-.275v-5.388h.275a2.414 2.414 0 012.415 2.415v.557a2.414 2.414 0 01-2.415 2.416zm-1.823 23.248l-.523-3.144a19.104 19.104 0 0015.883-17.153l.284-3.213 3.175.283-.284 3.21a22.292 22.292 0 01-18.535 20.017z" fill="#294A5C"/><path d="M307.753 191.902a2.99 2.99 0 00-.967-2.162v-2.912a.66.66 0 00-1.323 0v2.079a4.714 4.714 0 00-3.369 0v-2.079a.651.651 0 00-.406-.611.667.667 0 00-.721.144.66.66 0 00-.194.467v2.928a3.001 3.001 0 00-.953 2.146 3.075 3.075 0 001.264 2.416.976.976 0 00-.311.719.988.988 0 00.989.988h4.033a.992.992 0 00.991-.988.982.982 0 00-.305-.714 3.081 3.081 0 001.272-2.421z" fill="#02CCC0"/><path d="M260.277 217.562l.526-3.144a19.105 19.105 0 01-15.883-17.153l-.286-3.213-3.173.283.284 3.21a22.296 22.296 0 0018.532 20.017z" fill="#294A5C"/><path d="M239.298 191.903a3.008 3.008 0 01.968-2.163v-2.911a.66.66 0 111.321 0v2.079a4.711 4.711 0 013.368 0v-2.079a.663.663 0 011.129-.468.663.663 0 01.194.468v2.928a2.983 2.983 0 01.951 2.146 3.08 3.08 0 01-1.263 2.415c.098.092.177.204.231.327a.996.996 0 01-.209 1.091.992.992 0 01-.698.29h-4.036a.992.992 0 01-.988-.989.99.99 0 01.305-.713 3.074 3.074 0 01-1.273-2.421z" fill="#02CCC0"/><path d="M280.974 242.532h-3.562v19.924h3.562v-19.924z" fill="#294A5C"/><path d="M279.04 257.856a5.516 5.516 0 00-5.081 3.374 1.551 1.551 0 00.146 1.451 1.553 1.553 0 001.288.685h7.294a1.55 1.55 0 001.543-1.392 1.551 1.551 0 00-.109-.744 5.511 5.511 0 00-5.081-3.374zm2.986-7.558a2.836 2.836 0 01-3.385 2.781 2.83 2.83 0 01-2.227-2.226 2.83 2.83 0 012.778-3.387 2.834 2.834 0 012.834 2.832z" fill="#02CCC0"/><path d="M267.822 242.532h-3.562v19.924h3.562v-19.924zm11.989-38.149a.676.676 0 01-.456-1.144.676.676 0 01.456-.21.676.676 0 00-.676-.676h-12.246a1.514 1.514 0 01-.676 2.03.675.675 0 01.676.677.676.676 0 01-.676.676.676.676 0 00.676.676h12.253a.672.672 0 00.676-.676.676.676 0 110-1.353h-.007zm-15.79-20.436l1.237-17.726 1.238 17.726h-2.475zm15.612 0l1.237-17.726 1.239 17.726h-2.476z" fill="#294A5C"/><path d="M265.966 179.107h14.09a4.21 4.21 0 014.208 4.208v2.308h-22.506v-2.308a4.207 4.207 0 014.208-4.208zm-8.673 30.159h.513v10.033h-.513a4.505 4.505 0 01-4.503-4.504v-1.025a4.503 4.503 0 014.503-4.504zm31.529 10.035h-.513v-10.033h.513a4.505 4.505 0 014.503 4.504v1.024a4.515 4.515 0 01-1.318 3.185 4.49 4.49 0 01-3.185 1.32z" fill="#294A5C"/><path d="M284.084 181.247h-22.055a4.223 4.223 0 00-4.223 4.223v13.083a4.223 4.223 0 004.223 4.223h22.055a4.223 4.223 0 004.223-4.223V185.47a4.223 4.223 0 00-4.223-4.223z" fill="#02CCC0"/><path d="M265.951 189.655a2.843 2.843 0 01-1.758 2.634 2.849 2.849 0 01-2.675-5.002 2.848 2.848 0 014.433 2.368zm19.904 0a2.852 2.852 0 01-4.865 2.017 2.852 2.852 0 01-.619-3.106 2.848 2.848 0 012.634-1.76 2.85 2.85 0 012.85 2.849zm-12.797 7.182c-3.073 0-4.621-1.51-5.388-2.787a6.434 6.434 0 01-.608-1.367 1.121 1.121 0 01.152-.974 1.112 1.112 0 011.557-.269c.202.143.35.349.422.585.102.331.245.648.427.942.677 1.08 1.829 1.628 3.423 1.628s2.746-.558 3.422-1.628a4.02 4.02 0 00.427-.942 1.12 1.12 0 011.115-.789 1.109 1.109 0 011.052.943c.026.168.014.341-.038.504a6.262 6.262 0 01-.607 1.367c-.738 1.277-2.285 2.787-5.356 2.787z" fill="#EAF5F9"/><path d="M273.058 195.984c-1.437 0-2.627-.371-3.541-1.094a4.754 4.754 0 01-1.414-1.875.262.262 0 01-.002-.207.28.28 0 01.06-.088.263.263 0 01.285-.053.26.26 0 01.138.137c.546 1.261 1.765 2.655 4.474 2.655 2.708 0 3.925-1.394 4.473-2.655a.262.262 0 01.483.004.265.265 0 01-.001.207 4.79 4.79 0 01-1.414 1.875c-.914.726-2.102 1.094-3.541 1.094zm-7.906-6.33a2.042 2.042 0 01-3.488 1.445 2.042 2.042 0 011.445-3.488 2.045 2.045 0 012.043 2.043zm19.896 0a2.042 2.042 0 01-3.488 1.445 2.042 2.042 0 011.445-3.488 2.044 2.044 0 012.043 2.043z" fill="#294A5C"/><path d="M284.125 188.285c.44.372.548.97.242 1.327-.307.356-.907.34-1.346-.036-.438-.375-.557-.968-.243-1.324.314-.357.909-.342 1.347.033zm-19.813 0c.439.372.547.97.242 1.327-.305.356-.909.34-1.347-.036-.438-.375-.557-.968-.242-1.324.316-.357.907-.342 1.347.033z" fill="#E3EEF4"/><path d="M284.716 200.421h-23.32a3.598 3.598 0 01-2.538-1.051 3.59 3.59 0 01-1.05-2.538v2.357a3.58 3.58 0 001.05 2.538 3.59 3.59 0 002.538 1.052h23.32a3.592 3.592 0 003.587-3.59v-2.357a3.592 3.592 0 01-3.587 3.589z" fill="#06BFAD"/><path d="M284.64 205.8h-23.166a3.668 3.668 0 00-3.668 3.667v30.066a3.668 3.668 0 003.668 3.668h23.166a3.668 3.668 0 003.667-3.668v-30.066a3.667 3.667 0 00-3.667-3.667z" fill="#02CCC0"/><path d="M284.716 240.843h-23.32a3.59 3.59 0 01-3.588-3.59v2.358a3.583 3.583 0 002.214 3.316 3.58 3.58 0 001.374.274h23.32a3.594 3.594 0 002.537-1.052 3.594 3.594 0 001.05-2.538v-2.358a3.592 3.592 0 01-3.587 3.59z" fill="#06BFAD"/><path opacity=".3" d="M270.451 211.2h-7.021a3.171 3.171 0 00-3.171 3.172v14.242a3.171 3.171 0 003.171 3.172h7.021a3.172 3.172 0 003.171-3.172v-14.242a3.172 3.172 0 00-3.171-3.172zm12.986 0h-5.133a3.172 3.172 0 00-3.171 3.172v14.242a3.172 3.172 0 003.171 3.172h5.133a3.172 3.172 0 003.172-3.172v-14.242a3.172 3.172 0 00-3.172-3.172z" fill="#294A5C"/><path d="M271.651 213.835h-.115a.51.51 0 00-.509.509v14.298a.51.51 0 00.509.509h.115a.51.51 0 00.509-.509v-14.298a.51.51 0 00-.509-.509zm9.219-.795c-2.647 0-4.793 2.207-4.793 4.929h9.586c0-2.722-2.146-4.929-4.793-4.929z" fill="#294A5C"/><path d="M280.87 213.731c-2.023 0-3.664 1.579-3.664 3.53h7.324c0-1.951-1.637-3.53-3.66-3.53z" fill="#EAF5F9"/><path d="M277.99 222.442a.776.776 0 01-.93.764.779.779 0 11.93-.764zm7.618 0a.777.777 0 01-.481.719.779.779 0 11.481-.719zm-7.618 7.35a.776.776 0 01-.93.764.779.779 0 11.93-.764zm7.618 0a.777.777 0 01-.481.719.779.779 0 11.481-.719zm.384 4.764h-24.923a.617.617 0 00-.617.617v.139c0 .341.276.617.617.617h24.923a.617.617 0 00.617-.617v-.139a.617.617 0 00-.617-.617zm0 2.697h-24.923a.617.617 0 00-.617.617v.14c0 .34.276.616.617.616h24.923a.616.616 0 00.617-.616v-.14a.617.617 0 00-.617-.617z" fill="#294A5C"/><path opacity=".3" d="M280.653 216.813l1.41-2.586-.777 2.655-.633-.069z" fill="#294A5C"/><path d="M281.576 217.257a.712.712 0 00-.207-.543.708.708 0 00-1.209.501v.042h1.416zm-15.688 40.599a5.516 5.516 0 00-5.081 3.374 1.54 1.54 0 00.146 1.451 1.553 1.553 0 001.288.685h7.294a1.55 1.55 0 001.543-1.392 1.551 1.551 0 00-.109-.744 5.511 5.511 0 00-5.081-3.374zm2.986-7.558a2.836 2.836 0 01-3.385 2.781 2.83 2.83 0 01-2.227-2.226 2.823 2.823 0 01.161-1.637 2.827 2.827 0 012.617-1.75 2.834 2.834 0 012.834 2.832zm-2.12-82.849a1.484 1.484 0 01-.916 1.372 1.48 1.48 0 01-1.618-.318 1.485 1.485 0 011.038-2.541 1.497 1.497 0 011.496 1.487zm15.611 0a1.489 1.489 0 01-.915 1.372 1.487 1.487 0 11.915-1.372z" fill="#02CCC0"/><path d="M232.336 124.099a2.28 2.28 0 00-1.4-1.267l-4.963-1.583c.298-.978.546-1.97.743-2.973l-11.485-3.253-11.48-3.257a30.658 30.658 0 00-.929 2.915l-5.046-1.256a2.28 2.28 0 00-2.82 1.968c-.186 1.794-.329 5.317.968 8.732a13.039 13.039 0 003.216 4.892c1.525 1.447 3.435 2.524 5.687 3.221 1.152 1.23 2.681 2.246 4.687 2.928 2.066.474 3.902.413 5.527-.03 2.289.595 4.485.68 6.538.253a12.991 12.991 0 005.305-2.475c2.9-2.229 4.644-5.296 5.412-6.926a2.286 2.286 0 00.04-1.889zm-35.218-8.472a.11.11 0 01.016-.044.107.107 0 01.032-.035.1.1 0 01.043-.017.106.106 0 01.047.001l5.066 1.262c-.733 3.53-1.172 8.299.454 12.215-5.977-3.407-5.996-10.276-5.658-13.382zm33.225 9.427c-1.345 2.822-4.972 8.661-11.853 8.418 3.442-2.482 5.573-6.77 6.805-10.161l4.985 1.588a.116.116 0 01.041.025c.012.01.021.024.028.039.005.014.008.03.007.046a.102.102 0 01-.013.045z" fill="#FFD103"/><path d="M207.287 153.97l3.6-20.498-1.38 1.741.013-.047-.26-2.205-7.701 19.335 5.728 1.674z" fill="#FFD103"/><path d="M211.493 135.725a2.05 2.05 0 01-1.73 1.467 2.046 2.046 0 01-2.272-2.192 2.043 2.043 0 114.002.725zm-7.031 6.338l-.047.163a.749.749 0 00.516.924l4.299 1.22a.749.749 0 00.925-.516l.046-.163a.748.748 0 00-.516-.924l-4.299-1.22a.747.747 0 00-.924.516zm2.912 13.418l-6.698-1.901a.868.868 0 01-.522-.414.869.869 0 01-.078-.662l.054-.186a.868.868 0 01.414-.522.869.869 0 01.662-.078l6.699 1.901a.867.867 0 01.6 1.076l-.053.185a.871.871 0 01-1.078.601z" fill="#FFD103"/><path d="M208.985 144.3l-3.811-1.081-.412 1.034 4.028 1.16.195-1.113zm-8.719 7.678a.739.739 0 00-.103.218l-.12.425a.745.745 0 00.063.574.747.747 0 00.455.355l6.93 1.968a.743.743 0 00.929-.517l.121-.425a.776.776 0 00.026-.24l-8.301-2.358z" fill="#FEB546" opacity=".5"/><path d="M208.281 157.544l-9.461-2.682a1.193 1.193 0 01-.817-1.466l.074-.26a1.19 1.19 0 011.004-.855c.155-.018.312-.006.462.037l9.46 2.683a1.185 1.185 0 01.818 1.466l-.075.26a1.18 1.18 0 01-1.465.817z" fill="#FFD103"/><path d="M226.716 118.28l-4.174-1.183-.104.303c-6.445-1.704-18.789-5.068-18.789-5.068l17.793 7.617c-2.373 5.404-6.917 11.63-14.943 9.791a11.396 11.396 0 01-4.316-2.553c.868 3.434 2.973 6.503 7.344 7.98 13.594 3.115 17.189-16.887 17.189-16.887z" fill="#FEB546" opacity=".3"/><path d="M226.393 120.214l-23.378-6.634a1.556 1.556 0 01-.939-.742 1.567 1.567 0 01-.138-1.189l.096-.343a1.578 1.578 0 01.742-.939 1.569 1.569 0 011.189-.139l23.379 6.635a1.561 1.561 0 011.078 1.93l-.099.344a1.564 1.564 0 01-1.93 1.077z" fill="#FFE55A"/><path d="M204.886 115.999s-5.399 14.062 6.001 17.473c0 0-7.34-5.423-6.001-17.473z" fill="#F4C676" opacity=".3"/><path d="M214.131 119.604l.728 3.965 3.681 1.646-3.545 1.919-.429 4.008-2.921-2.778-3.944.831 1.741-3.636-2.01-3.495 3.996.532 2.703-2.992z" fill="#FEB546" opacity=".3"/><path d="M213.932 118.955l.728 3.965 3.681 1.646-3.545 1.919-.429 4.007-2.921-2.779-3.944.83 1.741-3.634-2.01-3.494 3.996.529 2.703-2.989z" fill="#FFE55A"/><path d="M243.121 166.745c-18.097-.172-36.983-20.037-38.227-21.217-1.245-1.179-1.487-2.552-1.195-2.762.292-.21 1.115.241 1.115.241s-.511-1.77-.13-2.138c.539-.517 1.761.15 1.761.15s-.225-1.744.502-1.986c.726-.241 1.469 1.146 1.469 1.146.615-.726 1.069-.759 1.069-.759 1.3.098 1.114 2.667 1.114 2.667l.84-.211c1.276-.259.399 2.721.399 2.721s2.068 3.189 13.271 8.617c11.203 5.429 18.875 4.138 18.875 4.138l-.863 9.393z" fill="#FFC0BB"/><path d="M242.088 156.231s9.76-.558 12.35-.316c3.507.316 4.542 4.797 1.525 7.641-2.839 2.678-13.875 4.831-13.875 4.831v-12.156z" fill="#E03268"/><path d="M253.018 165.112c-.577.263-1.165.503-1.759.724a37.09 37.09 0 01-1.8.619 49.25 49.25 0 01-3.666 1.022c-.619.148-1.239.286-1.858.412a55.44 55.44 0 01-1.707.329l-.011-2.874c0-1.013-.013-2.025-.025-3.038l-.04-3.045c-.021-1.013-.036-2.025-.064-3.038-.029 1.013-.042 2.025-.065 3.038l-.039 3.045c-.011 1.013-.024 2.025-.024 3.038l-.011 3.039v.167l.162-.024c1.265-.2 2.51-.472 3.749-.776a46.894 46.894 0 003.677-1.059 36.987 36.987 0 001.794-.665c.591-.238 1.18-.493 1.754-.771a17.476 17.476 0 001.672-.929 12.296 12.296 0 001.548-1.115 16.356 16.356 0 01-3.287 1.901z" fill="#EAF5F9"/><path d="M218.151 263.383l15.718.029a.489.489 0 00.498-.481v-.702a.49.49 0 00-.489-.491l-15.717-.028a.504.504 0 00-.347.143.48.48 0 00-.144.346v.7a.489.489 0 00.481.484z" fill="#294A5C"/><path d="M233.607 256.628l.545 4.674c.067.576-.257 1.098-.68 1.098l-14.711-.026a1.063 1.063 0 01-.959-.689c-.206-.459-.245-1.152.415-2.083 1.3-1.839 5.56-2.296 7.702-3.842a.263.263 0 01.151-.048l6.77.013c.381-.002.706.381.767.903z" fill="#FF5B7E"/><path d="M227.019 258.424a.318.318 0 00.106-.171.32.32 0 00-.02-.2c-.288-.639-1.188-2.2-3.027-1.884-.106.018-.186.16-.16.305.017.139.114.232.216.215 1.648-.279 2.415 1.096 2.645 1.635.049.11.157.149.24.1zm-1.529.606a.313.313 0 00.085-.372c-.287-.641-1.187-2.201-3.026-1.886-.106.019-.186.16-.16.305.017.141.114.232.216.216 1.648-.279 2.415 1.098 2.645 1.635.049.102.153.15.24.102z" fill="#294A5C"/><path d="M224.069 259.587a.32.32 0 00.084-.372c-.288-.641-1.188-2.2-3.025-1.884-.106.019-.186.16-.162.305.017.139.112.232.216.216 1.646-.279 2.415 1.096 2.644 1.633.052.102.154.15.243.102zm18.583 3.796l15.715.029a.49.49 0 00.491-.488v-.703a.494.494 0 00-.489-.49l-15.716-.028a.496.496 0 00-.34.144.495.495 0 00-.143.341v.7a.493.493 0 00.482.495z" fill="#294A5C"/><path d="M258.105 256.628l.545 4.674c.068.576-.257 1.098-.678 1.098l-14.715-.028a1.067 1.067 0 01-.959-.689c-.204-.459-.245-1.152.417-2.083 1.3-1.839 5.56-2.296 7.702-3.842a.245.245 0 01.149-.048l6.77.013c.383 0 .71.382.769.905z" fill="#FF5B7E"/><path d="M251.519 258.424a.32.32 0 00.084-.371c-.288-.639-1.187-2.2-3.025-1.884-.106.018-.186.16-.161.305.016.139.111.232.215.215 1.646-.279 2.415 1.096 2.644 1.635.052.11.154.149.243.1zm-1.529.606a.32.32 0 00.084-.372c-.288-.641-1.188-2.201-3.025-1.886-.106.019-.186.16-.162.305.017.141.112.232.216.216 1.646-.279 2.415 1.098 2.644 1.635.052.102.154.15.243.102z" fill="#294A5C"/><path d="M248.567 259.587a.31.31 0 00.105-.172.307.307 0 00-.02-.2c-.288-.641-1.189-2.2-3.026-1.884-.106.019-.186.16-.16.305.017.139.113.232.216.216 1.647-.279 2.415 1.096 2.645 1.633.048.102.16.15.24.102z" fill="#294A5C"/><defs><linearGradient id="paint0_linear_1142_13913" x1="268.786" y1="2.743" x2="268.786" y2="533" gradientUnits="userSpaceOnUse"><stop offset=".271" stop-color="#B62D2D"/><stop offset="1" stop-color="#223831" stop-opacity="0"/></linearGradient></defs></svg>